<svg xmlns="http://www.w3.org/2000/svg" viewBox="0 0 512 512" role="img" aria-labelledby="title desc">
  <title id="title">图片像素格转换器图标</title>
  <desc id="desc">蓝色圆角背景中的九宫格像素图标</desc>
  <rect width="512" height="512" rx="112" fill="#3366cc" />
  <rect x="118" y="118" width="276" height="276" rx="36" fill="#f8fbff" />
  <g stroke="#3366cc" stroke-width="16">
    <path d="M210 118v276M302 118v276M118 210h276M118 302h276" />
  </g>
  <rect x="134" y="134" width="60" height="60" rx="10" fill="#edf3ff" />
  <rect x="226" y="134" width="60" height="60" rx="10" fill="#9ab0df" />
  <rect x="318" y="134" width="60" height="60" rx="10" fill="#edf3ff" />
  <rect x="134" y="226" width="60" height="60" rx="10" fill="#9ab0df" />
  <rect x="226" y="226" width="60" height="60" rx="10" fill="#edf3ff" />
  <rect x="318" y="226" width="60" height="60" rx="10" fill="#9ab0df" />
  <rect x="134" y="318" width="60" height="60" rx="10" fill="#edf3ff" />
  <rect x="226" y="318" width="60" height="60" rx="10" fill="#9ab0df" />
  <rect x="318" y="318" width="60" height="60" rx="10" fill="#edf3ff" />
</svg>
